<svg id="svg" version="1.1" xmlns="http://www.w3.org/2000/svg" xmlns:xlink="http://www.w3.org/1999/xlink" width="400" height="400" viewBox="0, 0, 400,400"><g id="svgg"><path id="path0" d="M198.000 159.200 C 198.000 159.437,196.533 159.600,194.400 159.600 C 192.267 159.600,190.800 159.763,190.800 160.000 C 190.800 160.220,190.080 160.400,189.200 160.400 C 188.320 160.400,187.600 160.580,187.600 160.800 C 187.600 161.020,187.240 161.200,186.800 161.200 C 186.360 161.200,186.000 161.380,186.000 161.600 C 186.000 161.820,185.460 162.000,184.800 162.000 C 184.140 162.000,183.600 162.180,183.600 162.400 C 183.600 162.620,183.240 162.800,182.800 162.800 C 182.360 162.800,182.000 162.980,182.000 163.200 C 182.000 163.420,181.640 163.600,181.200 163.600 C 180.760 163.600,180.400 163.780,180.400 164.000 C 180.400 164.220,180.080 164.400,179.688 164.400 C 179.297 164.400,178.717 164.760,178.400 165.200 C 178.083 165.640,177.543 166.000,177.200 166.000 C 176.857 166.000,176.317 166.360,176.000 166.800 C 175.683 167.240,175.191 167.600,174.906 167.600 C 174.231 167.600,167.600 174.231,167.600 174.906 C 167.600 175.191,167.240 175.683,166.800 176.000 C 166.360 176.317,166.000 176.857,166.000 177.200 C 166.000 177.543,165.640 178.083,165.200 178.400 C 164.760 178.717,164.400 179.297,164.400 179.688 C 164.400 180.080,164.220 180.400,164.000 180.400 C 163.780 180.400,163.600 180.760,163.600 181.200 C 163.600 181.640,163.420 182.000,163.200 182.000 C 162.980 182.000,162.800 182.360,162.800 182.800 C 162.800 183.240,162.620 183.600,162.400 183.600 C 162.180 183.600,162.000 184.140,162.000 184.800 C 162.000 185.460,161.820 186.000,161.600 186.000 C 161.380 186.000,161.200 186.540,161.200 187.200 C 161.200 187.860,161.020 188.400,160.800 188.400 C 160.580 188.400,160.400 189.120,160.400 190.000 C 160.400 190.880,160.220 191.600,160.000 191.600 C 159.763 191.600,159.600 193.067,159.600 195.200 C 159.600 197.333,159.437 198.800,159.200 198.800 C 158.980 198.800,158.800 199.340,158.800 200.000 C 158.800 200.933,158.978 201.200,159.600 201.200 C 160.222 201.200,160.400 200.933,160.400 200.000 C 160.400 199.340,160.580 198.800,160.800 198.800 C 161.033 198.800,161.200 197.467,161.200 195.600 C 161.200 193.733,161.367 192.400,161.600 192.400 C 161.820 192.400,162.000 191.680,162.000 190.800 C 162.000 189.920,162.180 189.200,162.400 189.200 C 162.620 189.200,162.800 188.660,162.800 188.000 C 162.800 187.340,162.980 186.800,163.200 186.800 C 163.420 186.800,163.600 186.260,163.600 185.600 C 163.600 184.940,163.780 184.400,164.000 184.400 C 164.220 184.400,164.400 184.040,164.400 183.600 C 164.400 183.160,164.580 182.800,164.800 182.800 C 165.020 182.800,165.200 182.480,165.200 182.088 C 165.200 181.697,165.560 181.117,166.000 180.800 C 166.440 180.483,166.800 179.903,166.800 179.512 C 166.800 179.120,166.980 178.800,167.200 178.800 C 167.420 178.800,167.600 178.516,167.600 178.169 C 167.600 177.821,168.320 176.846,169.200 176.000 C 170.080 175.154,170.800 174.263,170.800 174.018 C 170.800 173.440,173.440 170.800,174.018 170.800 C 174.263 170.800,175.154 170.080,176.000 169.200 C 176.846 168.320,177.782 167.600,178.080 167.600 C 178.379 167.600,178.883 167.240,179.200 166.800 C 179.517 166.360,180.097 166.000,180.488 166.000 C 180.880 166.000,181.200 165.820,181.200 165.600 C 181.200 165.380,181.560 165.200,182.000 165.200 C 182.440 165.200,182.800 165.020,182.800 164.800 C 182.800 164.580,183.160 164.400,183.600 164.400 C 184.040 164.400,184.400 164.220,184.400 164.000 C 184.400 163.780,184.940 163.600,185.600 163.600 C 186.260 163.600,186.800 163.420,186.800 163.200 C 186.800 162.980,187.340 162.800,188.000 162.800 C 188.660 162.800,189.200 162.620,189.200 162.400 C 189.200 162.180,189.740 162.000,190.400 162.000 C 191.060 162.000,191.600 161.820,191.600 161.600 C 191.600 161.363,193.067 161.200,195.200 161.200 C 197.333 161.200,198.800 161.037,198.800 160.800 C 198.800 160.580,199.340 160.400,200.000 160.400 C 200.660 160.400,201.200 160.580,201.200 160.800 C 201.200 161.033,202.533 161.200,204.400 161.200 C 206.267 161.200,207.600 161.367,207.600 161.600 C 207.600 161.820,208.320 162.000,209.200 162.000 C 210.080 162.000,210.800 162.180,210.800 162.400 C 210.800 162.620,211.340 162.800,212.000 162.800 C 212.660 162.800,213.200 162.980,213.200 163.200 C 213.200 163.420,213.740 163.600,214.400 163.600 C 215.060 163.600,215.600 163.780,215.600 164.000 C 215.600 164.220,215.960 164.400,216.400 164.400 C 216.840 164.400,217.200 164.580,217.200 164.800 C 217.200 165.020,217.520 165.200,217.912 165.200 C 218.303 165.200,218.883 165.560,219.200 166.000 C 219.517 166.440,220.097 166.800,220.488 166.800 C 220.880 166.800,221.200 166.980,221.200 167.200 C 221.200 167.420,221.484 167.600,221.831 167.600 C 222.179 167.600,223.154 168.320,224.000 169.200 C 224.846 170.080,225.737 170.800,225.982 170.800 C 226.560 170.800,229.200 173.440,229.200 174.018 C 229.200 174.263,229.920 175.154,230.800 176.000 C 231.680 176.846,232.400 177.821,232.400 178.169 C 232.400 178.516,232.580 178.800,232.800 178.800 C 233.020 178.800,233.200 179.120,233.200 179.512 C 233.200 179.903,233.560 180.483,234.000 180.800 C 234.440 181.117,234.800 181.697,234.800 182.088 C 234.800 182.480,234.980 182.800,235.200 182.800 C 235.420 182.800,235.600 183.160,235.600 183.600 C 235.600 184.040,235.780 184.400,236.000 184.400 C 236.220 184.400,236.400 184.940,236.400 185.600 C 236.400 186.260,236.580 186.800,236.800 186.800 C 237.020 186.800,237.200 187.340,237.200 188.000 C 237.200 188.660,237.380 189.200,237.600 189.200 C 237.820 189.200,238.000 189.920,238.000 190.800 C 238.000 191.680,238.180 192.400,238.400 192.400 C 238.633 192.400,238.800 193.733,238.800 195.600 C 238.800 197.467,238.967 198.800,239.200 198.800 C 239.420 198.800,239.600 199.340,239.600 200.000 C 239.600 200.660,239.420 201.200,239.200 201.200 C 238.967 201.200,238.800 202.533,238.800 204.400 C 238.800 206.267,238.633 207.600,238.400 207.600 C 238.180 207.600,238.000 208.320,238.000 209.200 C 238.000 210.080,237.820 210.800,237.600 210.800 C 237.380 210.800,237.200 211.340,237.200 212.000 C 237.200 212.660,237.020 213.200,236.800 213.200 C 236.580 213.200,236.400 213.740,236.400 214.400 C 236.400 215.060,236.220 215.600,236.000 215.600 C 235.780 215.600,235.600 215.960,235.600 216.400 C 235.600 216.840,235.420 217.200,235.200 217.200 C 234.980 217.200,234.800 217.520,234.800 217.912 C 234.800 218.303,234.440 218.883,234.000 219.200 C 233.560 219.517,233.200 220.057,233.200 220.400 C 233.200 220.743,232.840 221.283,232.400 221.600 C 231.960 221.917,231.600 222.409,231.600 222.693 C 231.600 223.367,223.367 231.600,222.693 231.600 C 222.409 231.600,221.917 231.960,221.600 232.400 C 221.283 232.840,220.743 233.200,220.400 233.200 C 220.057 233.200,219.517 233.560,219.200 234.000 C 218.883 234.440,218.303 234.800,217.912 234.800 C 217.520 234.800,217.200 234.980,217.200 235.200 C 217.200 235.420,216.840 235.600,216.400 235.600 C 215.960 235.600,215.600 235.780,215.600 236.000 C 215.600 236.220,215.060 236.400,214.400 236.400 C 213.740 236.400,213.200 236.580,213.200 236.800 C 213.200 237.020,212.660 237.200,212.000 237.200 C 211.340 237.200,210.800 237.380,210.800 237.600 C 210.800 237.820,210.080 238.000,209.200 238.000 C 208.320 238.000,207.600 238.180,207.600 238.400 C 207.600 238.637,206.133 238.800,204.000 238.800 C 201.867 238.800,200.400 238.963,200.400 239.200 C 200.400 239.420,200.040 239.600,199.600 239.600 C 199.160 239.600,198.800 239.420,198.800 239.200 C 198.800 238.963,197.333 238.800,195.200 238.800 C 193.067 238.800,191.600 238.637,191.600 238.400 C 191.600 238.180,190.880 238.000,190.000 238.000 C 189.120 238.000,188.400 237.820,188.400 237.600 C 188.400 237.380,188.040 237.200,187.600 237.200 C 187.160 237.200,186.800 237.020,186.800 236.800 C 186.800 236.580,186.260 236.400,185.600 236.400 C 184.940 236.400,184.400 236.220,184.400 236.000 C 184.400 235.780,184.040 235.600,183.600 235.600 C 183.160 235.600,182.800 235.420,182.800 235.200 C 182.800 234.980,182.440 234.800,182.000 234.800 C 181.560 234.800,181.200 234.620,181.200 234.400 C 181.200 234.180,180.880 234.000,180.488 234.000 C 180.097 234.000,179.517 233.640,179.200 233.200 C 178.883 232.760,178.343 232.400,178.000 232.400 C 177.657 232.400,177.117 232.040,176.800 231.600 C 176.483 231.160,175.990 230.800,175.705 230.800 C 175.030 230.800,169.200 224.970,169.200 224.295 C 169.200 224.010,168.840 223.517,168.400 223.200 C 167.960 222.883,167.600 222.343,167.600 222.000 C 167.600 221.657,167.240 221.117,166.800 220.800 C 166.360 220.483,166.000 219.903,166.000 219.512 C 166.000 219.120,165.820 218.800,165.600 218.800 C 165.380 218.800,165.200 218.440,165.200 218.000 C 165.200 217.560,165.020 217.200,164.800 217.200 C 164.580 217.200,164.400 216.840,164.400 216.400 C 164.400 215.960,164.220 215.600,164.000 215.600 C 163.780 215.600,163.600 215.060,163.600 214.400 C 163.600 213.740,163.420 213.200,163.200 213.200 C 162.980 213.200,162.800 212.840,162.800 212.400 C 162.800 211.960,162.620 211.600,162.400 211.600 C 162.180 211.600,162.000 210.880,162.000 210.000 C 162.000 209.120,161.820 208.400,161.600 208.400 C 161.367 208.400,161.200 207.067,161.200 205.200 C 161.200 202.267,161.133 202.000,160.400 202.000 C 159.667 202.000,159.600 202.267,159.600 205.200 C 159.600 207.067,159.767 208.400,160.000 208.400 C 160.220 208.400,160.400 209.120,160.400 210.000 C 160.400 210.880,160.580 211.600,160.800 211.600 C 161.020 211.600,161.200 212.140,161.200 212.800 C 161.200 213.460,161.380 214.000,161.600 214.000 C 161.820 214.000,162.000 214.540,162.000 215.200 C 162.000 215.860,162.180 216.400,162.400 216.400 C 162.620 216.400,162.800 216.760,162.800 217.200 C 162.800 217.640,162.980 218.000,163.200 218.000 C 163.420 218.000,163.600 218.360,163.600 218.800 C 163.600 219.240,163.780 219.600,164.000 219.600 C 164.220 219.600,164.400 219.920,164.400 220.312 C 164.400 220.703,164.760 221.283,165.200 221.600 C 165.640 221.917,166.000 222.457,166.000 222.800 C 166.000 223.143,166.360 223.683,166.800 224.000 C 167.240 224.317,167.600 224.809,167.600 225.094 C 167.600 225.769,174.231 232.400,174.906 232.400 C 175.191 232.400,175.683 232.760,176.000 233.200 C 176.317 233.640,176.857 234.000,177.200 234.000 C 177.543 234.000,178.083 234.360,178.400 234.800 C 178.717 235.240,179.297 235.600,179.688 235.600 C 180.080 235.600,180.400 235.780,180.400 236.000 C 180.400 236.220,180.760 236.400,181.200 236.400 C 181.640 236.400,182.000 236.580,182.000 236.800 C 182.000 237.020,182.360 237.200,182.800 237.200 C 183.240 237.200,183.600 237.380,183.600 237.600 C 183.600 237.820,184.140 238.000,184.800 238.000 C 185.460 238.000,186.000 238.180,186.000 238.400 C 186.000 238.620,186.540 238.800,187.200 238.800 C 187.860 238.800,188.400 238.980,188.400 239.200 C 188.400 239.420,188.940 239.600,189.600 239.600 C 190.260 239.600,190.800 239.780,190.800 240.000 C 190.800 240.240,192.400 240.400,194.800 240.400 C 197.200 240.400,198.800 240.560,198.800 240.800 C 198.800 241.020,199.340 241.200,200.000 241.200 C 200.660 241.200,201.200 241.020,201.200 240.800 C 201.200 240.563,202.667 240.400,204.800 240.400 C 206.933 240.400,208.400 240.237,208.400 240.000 C 208.400 239.780,209.120 239.600,210.000 239.600 C 210.880 239.600,211.600 239.420,211.600 239.200 C 211.600 238.980,212.140 238.800,212.800 238.800 C 213.460 238.800,214.000 238.620,214.000 238.400 C 214.000 238.180,214.540 238.000,215.200 238.000 C 215.860 238.000,216.400 237.820,216.400 237.600 C 216.400 237.380,216.760 237.200,217.200 237.200 C 217.640 237.200,218.000 237.020,218.000 236.800 C 218.000 236.580,218.360 236.400,218.800 236.400 C 219.240 236.400,219.600 236.220,219.600 236.000 C 219.600 235.780,219.920 235.600,220.312 235.600 C 220.703 235.600,221.283 235.240,221.600 234.800 C 221.917 234.360,222.425 234.000,222.728 234.000 C 223.031 234.000,223.783 233.460,224.400 232.800 C 225.017 232.140,225.722 231.600,225.967 231.600 C 226.592 231.600,232.400 225.727,232.400 225.095 C 232.400 224.810,232.760 224.317,233.200 224.000 C 233.640 223.683,234.000 223.143,234.000 222.800 C 234.000 222.457,234.360 221.917,234.800 221.600 C 235.240 221.283,235.600 220.703,235.600 220.312 C 235.600 219.920,235.780 219.600,236.000 219.600 C 236.220 219.600,236.400 219.240,236.400 218.800 C 236.400 218.360,236.580 218.000,236.800 218.000 C 237.020 218.000,237.200 217.640,237.200 217.200 C 237.200 216.760,237.380 216.400,237.600 216.400 C 237.820 216.400,238.000 215.860,238.000 215.200 C 238.000 214.540,238.180 214.000,238.400 214.000 C 238.620 214.000,238.800 213.640,238.800 213.200 C 238.800 212.760,238.980 212.400,239.200 212.400 C 239.420 212.400,239.600 211.680,239.600 210.800 C 239.600 209.920,239.780 209.200,240.000 209.200 C 240.237 209.200,240.400 207.733,240.400 205.600 C 240.400 203.467,240.563 202.000,240.800 202.000 C 241.020 202.000,241.200 201.280,241.200 200.400 C 241.200 199.520,241.020 198.800,240.800 198.800 C 240.563 198.800,240.400 197.333,240.400 195.200 C 240.400 193.067,240.237 191.600,240.000 191.600 C 239.780 191.600,239.600 190.880,239.600 190.000 C 239.600 189.120,239.420 188.400,239.200 188.400 C 238.980 188.400,238.800 187.860,238.800 187.200 C 238.800 186.540,238.620 186.000,238.400 186.000 C 238.180 186.000,238.000 185.460,238.000 184.800 C 238.000 184.140,237.820 183.600,237.600 183.600 C 237.380 183.600,237.200 183.240,237.200 182.800 C 237.200 182.360,237.020 182.000,236.800 182.000 C 236.580 182.000,236.400 181.680,236.400 181.288 C 236.400 180.897,236.040 180.317,235.600 180.000 C 235.160 179.683,234.800 179.103,234.800 178.712 C 234.800 178.320,234.620 178.000,234.400 178.000 C 234.180 178.000,234.000 177.716,234.000 177.369 C 234.000 177.021,233.280 176.046,232.400 175.200 C 231.520 174.354,230.800 173.464,230.800 173.221 C 230.800 172.645,227.355 169.200,226.779 169.200 C 226.536 169.200,225.646 168.480,224.800 167.600 C 223.954 166.720,222.979 166.000,222.631 166.000 C 222.284 166.000,222.000 165.820,222.000 165.600 C 222.000 165.380,221.680 165.200,221.288 165.200 C 220.897 165.200,220.317 164.840,220.000 164.400 C 219.683 163.960,219.103 163.600,218.712 163.600 C 218.320 163.600,218.000 163.420,218.000 163.200 C 218.000 162.980,217.640 162.800,217.200 162.800 C 216.760 162.800,216.400 162.620,216.400 162.400 C 216.400 162.180,215.860 162.000,215.200 162.000 C 214.540 162.000,214.000 161.820,214.000 161.600 C 214.000 161.380,213.460 161.200,212.800 161.200 C 212.140 161.200,211.600 161.020,211.600 160.800 C 211.600 160.580,210.880 160.400,210.000 160.400 C 209.120 160.400,208.400 160.220,208.400 160.000 C 208.400 159.763,206.933 159.600,204.800 159.600 C 202.667 159.600,201.200 159.437,201.200 159.200 C 201.200 158.980,200.480 158.800,199.600 158.800 C 198.720 158.800,198.000 158.980,198.000 159.200 M192.400 163.200 C 192.400 163.420,191.680 163.600,190.800 163.600 C 189.920 163.600,189.200 163.780,189.200 164.000 C 189.200 164.220,188.660 164.400,188.000 164.400 C 187.340 164.400,186.800 164.580,186.800 164.800 C 186.800 165.020,186.440 165.200,186.000 165.200 C 185.560 165.200,185.200 165.380,185.200 165.600 C 185.200 165.820,184.660 166.000,184.000 166.000 C 183.340 166.000,182.800 166.180,182.800 166.400 C 182.800 166.620,182.480 166.800,182.088 166.800 C 181.697 166.800,181.117 167.160,180.800 167.600 C 180.483 168.040,179.975 168.400,179.672 168.400 C 179.369 168.400,178.617 168.940,178.000 169.600 C 177.383 170.260,176.678 170.800,176.432 170.800 C 175.849 170.800,170.800 175.849,170.800 176.432 C 170.800 176.678,170.260 177.383,169.600 178.000 C 168.940 178.617,168.400 179.409,168.400 179.760 C 168.400 180.112,168.220 180.400,168.000 180.400 C 167.780 180.400,167.600 180.760,167.600 181.200 C 167.600 181.640,167.420 182.000,167.200 182.000 C 166.980 182.000,166.800 182.360,166.800 182.800 C 166.800 183.240,166.620 183.600,166.400 183.600 C 166.180 183.600,166.000 183.960,166.000 184.400 C 166.000 184.840,165.820 185.200,165.600 185.200 C 165.380 185.200,165.200 185.560,165.200 186.000 C 165.200 186.440,165.020 186.800,164.800 186.800 C 164.580 186.800,164.400 187.340,164.400 188.000 C 164.400 188.660,164.220 189.200,164.000 189.200 C 163.780 189.200,163.600 190.100,163.600 191.200 C 163.600 192.300,163.420 193.200,163.200 193.200 C 162.949 193.200,162.800 195.733,162.800 200.000 C 162.800 204.267,162.949 206.800,163.200 206.800 C 163.420 206.800,163.600 207.700,163.600 208.800 C 163.600 209.900,163.780 210.800,164.000 210.800 C 164.220 210.800,164.400 211.340,164.400 212.000 C 164.400 212.660,164.580 213.200,164.800 213.200 C 165.020 213.200,165.200 213.560,165.200 214.000 C 165.200 214.440,165.380 214.800,165.600 214.800 C 165.820 214.800,166.000 215.160,166.000 215.600 C 166.000 216.040,166.180 216.400,166.400 216.400 C 166.620 216.400,166.800 216.760,166.800 217.200 C 166.800 217.640,166.980 218.000,167.200 218.000 C 167.420 218.000,167.600 218.360,167.600 218.800 C 167.600 219.240,167.780 219.600,168.000 219.600 C 168.220 219.600,168.400 219.888,168.400 220.240 C 168.400 220.591,168.940 221.383,169.600 222.000 C 170.260 222.617,170.800 223.322,170.800 223.568 C 170.800 224.151,175.849 229.200,176.432 229.200 C 176.678 229.200,177.383 229.740,178.000 230.400 C 178.617 231.060,179.409 231.600,179.760 231.600 C 180.112 231.600,180.400 231.780,180.400 232.000 C 180.400 232.220,180.760 232.400,181.200 232.400 C 181.640 232.400,182.000 232.580,182.000 232.800 C 182.000 233.020,182.360 233.200,182.800 233.200 C 183.240 233.200,183.600 233.380,183.600 233.600 C 183.600 233.820,183.960 234.000,184.400 234.000 C 184.840 234.000,185.200 234.180,185.200 234.400 C 185.200 234.620,185.560 234.800,186.000 234.800 C 186.440 234.800,186.800 234.980,186.800 235.200 C 186.800 235.420,187.340 235.600,188.000 235.600 C 188.660 235.600,189.200 235.780,189.200 236.000 C 189.200 236.220,190.100 236.400,191.200 236.400 C 192.300 236.400,193.200 236.580,193.200 236.800 C 193.200 237.051,195.733 237.200,200.000 237.200 C 204.267 237.200,206.800 237.051,206.800 236.800 C 206.800 236.580,207.520 236.400,208.400 236.400 C 209.280 236.400,210.000 236.220,210.000 236.000 C 210.000 235.780,210.540 235.600,211.200 235.600 C 211.860 235.600,212.400 235.420,212.400 235.200 C 212.400 234.980,212.940 234.800,213.600 234.800 C 214.260 234.800,214.800 234.620,214.800 234.400 C 214.800 234.180,215.160 234.000,215.600 234.000 C 216.040 234.000,216.400 233.820,216.400 233.600 C 216.400 233.380,216.760 233.200,217.200 233.200 C 217.640 233.200,218.000 233.020,218.000 232.800 C 218.000 232.580,218.360 232.400,218.800 232.400 C 219.240 232.400,219.600 232.220,219.600 232.000 C 219.600 231.780,219.888 231.600,220.240 231.600 C 220.591 231.600,221.383 231.060,222.000 230.400 C 222.617 229.740,223.322 229.200,223.568 229.200 C 224.151 229.200,229.200 224.151,229.200 223.568 C 229.200 223.322,229.740 222.617,230.400 222.000 C 231.060 221.383,231.600 220.591,231.600 220.240 C 231.600 219.888,231.780 219.600,232.000 219.600 C 232.220 219.600,232.400 219.280,232.400 218.888 C 232.400 218.497,232.760 217.917,233.200 217.600 C 233.670 217.261,234.000 216.565,234.000 215.912 C 234.000 215.300,234.180 214.800,234.400 214.800 C 234.620 214.800,234.800 214.440,234.800 214.000 C 234.800 213.560,234.980 213.200,235.200 213.200 C 235.420 213.200,235.600 212.660,235.600 212.000 C 235.600 211.340,235.780 210.800,236.000 210.800 C 236.220 210.800,236.400 210.080,236.400 209.200 C 236.400 208.320,236.580 207.600,236.800 207.600 C 237.052 207.600,237.200 204.933,237.200 200.400 C 237.200 195.867,237.052 193.200,236.800 193.200 C 236.580 193.200,236.400 192.480,236.400 191.600 C 236.400 190.720,236.220 190.000,236.000 190.000 C 235.780 190.000,235.600 189.460,235.600 188.800 C 235.600 188.140,235.420 187.600,235.200 187.600 C 234.980 187.600,234.800 187.060,234.800 186.400 C 234.800 185.740,234.620 185.200,234.400 185.200 C 234.180 185.200,234.000 184.840,234.000 184.400 C 234.000 183.960,233.820 183.600,233.600 183.600 C 233.380 183.600,233.200 183.240,233.200 182.800 C 233.200 182.360,233.020 182.000,232.800 182.000 C 232.580 182.000,232.400 181.680,232.400 181.288 C 232.400 180.897,232.040 180.317,231.600 180.000 C 231.160 179.683,230.800 179.179,230.800 178.880 C 230.800 178.582,230.080 177.646,229.200 176.800 C 228.320 175.954,227.600 175.060,227.600 174.813 C 227.600 174.230,225.770 172.400,225.187 172.400 C 224.940 172.400,224.046 171.680,223.200 170.800 C 222.354 169.920,221.418 169.200,221.120 169.200 C 220.821 169.200,220.317 168.840,220.000 168.400 C 219.683 167.960,219.103 167.600,218.712 167.600 C 218.320 167.600,218.000 167.420,218.000 167.200 C 218.000 166.980,217.640 166.800,217.200 166.800 C 216.760 166.800,216.400 166.620,216.400 166.400 C 216.400 166.180,216.040 166.000,215.600 166.000 C 215.160 166.000,214.800 165.820,214.800 165.600 C 214.800 165.380,214.260 165.200,213.600 165.200 C 212.940 165.200,212.400 165.020,212.400 164.800 C 212.400 164.580,211.860 164.400,211.200 164.400 C 210.540 164.400,210.000 164.220,210.000 164.000 C 210.000 163.780,209.280 163.600,208.400 163.600 C 207.520 163.600,206.800 163.420,206.800 163.200 C 206.800 162.948,204.133 162.800,199.600 162.800 C 195.067 162.800,192.400 162.948,192.400 163.200 M202.800 166.400 C 202.800 166.622,203.867 166.800,205.200 166.800 C 206.533 166.800,207.600 166.978,207.600 167.200 C 207.600 167.420,208.140 167.600,208.800 167.600 C 209.460 167.600,210.000 167.780,210.000 168.000 C 210.000 168.220,210.720 168.400,211.600 168.400 C 212.480 168.400,213.200 168.580,213.200 168.800 C 213.200 169.020,213.520 169.200,213.912 169.200 C 214.303 169.200,214.883 169.560,215.200 170.000 C 215.517 170.440,216.097 170.800,216.488 170.800 C 216.880 170.800,217.200 170.980,217.200 171.200 C 217.200 171.420,217.488 171.600,217.840 171.600 C 218.191 171.600,218.983 172.140,219.600 172.800 C 220.217 173.460,220.923 174.000,221.169 174.000 C 221.753 174.000,226.000 178.247,226.000 178.831 C 226.000 179.077,226.540 179.783,227.200 180.400 C 227.860 181.017,228.400 181.809,228.400 182.160 C 228.400 182.512,228.580 182.800,228.800 182.800 C 229.020 182.800,229.200 183.120,229.200 183.512 C 229.200 183.903,229.560 184.483,230.000 184.800 C 230.440 185.117,230.800 185.697,230.800 186.088 C 230.800 186.480,230.980 186.800,231.200 186.800 C 231.420 186.800,231.600 187.520,231.600 188.400 C 231.600 189.280,231.780 190.000,232.000 190.000 C 232.220 190.000,232.400 190.540,232.400 191.200 C 232.400 191.860,232.580 192.400,232.800 192.400 C 233.022 192.400,233.200 193.467,233.200 194.800 C 233.200 196.133,233.378 197.200,233.600 197.200 C 233.829 197.200,234.000 198.400,234.000 200.000 C 234.000 201.600,233.829 202.800,233.600 202.800 C 233.378 202.800,233.200 203.867,233.200 205.200 C 233.200 206.533,233.022 207.600,232.800 207.600 C 232.580 207.600,232.400 208.320,232.400 209.200 C 232.400 210.080,232.220 210.800,232.000 210.800 C 231.780 210.800,231.600 211.160,231.600 211.600 C 231.600 212.040,231.420 212.400,231.200 212.400 C 230.980 212.400,230.800 212.760,230.800 213.200 C 230.800 213.640,230.620 214.000,230.400 214.000 C 230.180 214.000,230.000 214.360,230.000 214.800 C 230.000 215.240,229.820 215.600,229.600 215.600 C 229.380 215.600,229.200 215.960,229.200 216.400 C 229.200 216.840,229.020 217.200,228.800 217.200 C 228.580 217.200,228.400 217.488,228.400 217.840 C 228.400 218.191,227.860 218.983,227.200 219.600 C 226.540 220.217,226.000 221.009,226.000 221.360 C 226.000 221.712,225.820 222.000,225.600 222.000 C 225.346 222.000,225.200 218.862,225.200 213.387 L 225.200 204.773 223.813 203.387 C 223.051 202.624,222.190 202.000,221.902 202.000 C 221.613 202.000,221.117 201.640,220.800 201.200 C 220.483 200.760,219.943 200.400,219.600 200.400 C 219.257 200.400,218.717 200.040,218.400 199.600 C 218.083 199.160,217.543 198.800,217.200 198.800 C 216.857 198.800,216.317 198.440,216.000 198.000 C 215.404 197.174,214.000 196.893,214.000 197.600 C 214.000 197.820,213.680 198.000,213.288 198.000 C 212.897 198.000,212.317 198.360,212.000 198.800 C 211.683 199.240,211.103 199.600,210.712 199.600 C 210.320 199.600,210.000 199.780,210.000 200.000 C 210.000 200.220,209.680 200.400,209.288 200.400 C 208.897 200.400,208.317 200.760,208.000 201.200 C 207.683 201.640,207.103 202.000,206.712 202.000 C 206.320 202.000,206.000 202.180,206.000 202.400 C 206.000 202.620,205.722 202.800,205.382 202.800 C 205.042 202.800,204.322 203.242,203.782 203.782 L 202.800 204.764 202.800 219.382 L 202.800 234.000 200.000 234.000 L 197.200 234.000 197.200 216.582 L 197.200 199.164 196.218 198.182 C 195.678 197.642,194.998 197.200,194.706 197.200 C 194.415 197.200,193.917 196.840,193.600 196.400 C 193.283 195.960,192.743 195.600,192.400 195.600 C 192.057 195.600,191.517 195.240,191.200 194.800 C 190.883 194.360,190.343 194.000,190.000 194.000 C 189.657 194.000,189.117 193.640,188.800 193.200 C 188.483 192.760,187.903 192.400,187.512 192.400 C 187.120 192.400,186.800 192.220,186.800 192.000 C 186.800 191.780,186.440 191.600,186.000 191.600 C 185.560 191.600,185.200 191.780,185.200 192.000 C 185.200 192.220,184.880 192.400,184.488 192.400 C 184.097 192.400,183.517 192.760,183.200 193.200 C 182.883 193.640,182.303 194.000,181.912 194.000 C 181.520 194.000,181.200 194.180,181.200 194.400 C 181.200 194.620,180.880 194.800,180.488 194.800 C 180.097 194.800,179.517 195.160,179.200 195.600 C 178.883 196.040,178.303 196.400,177.912 196.400 C 177.520 196.400,177.200 196.580,177.200 196.800 C 177.200 197.020,176.917 197.200,176.571 197.200 C 174.879 197.200,174.800 197.777,174.800 210.171 C 174.800 216.677,174.697 222.000,174.571 222.000 C 174.162 222.000,173.200 220.869,173.200 220.389 C 173.200 220.132,172.660 219.417,172.000 218.800 C 171.340 218.183,170.800 217.391,170.800 217.040 C 170.800 216.688,170.620 216.400,170.400 216.400 C 170.180 216.400,170.000 216.040,170.000 215.600 C 170.000 215.160,169.820 214.800,169.600 214.800 C 169.380 214.800,169.200 214.440,169.200 214.000 C 169.200 213.560,169.020 213.200,168.800 213.200 C 168.580 213.200,168.400 212.660,168.400 212.000 C 168.400 211.340,168.220 210.800,168.000 210.800 C 167.780 210.800,167.600 210.260,167.600 209.600 C 167.600 208.940,167.420 208.400,167.200 208.400 C 166.978 208.400,166.800 207.333,166.800 206.000 C 166.800 204.667,166.622 203.600,166.400 203.600 C 166.171 203.600,166.000 202.400,166.000 200.800 C 166.000 199.200,166.171 198.000,166.400 198.000 C 166.629 198.000,166.800 196.800,166.800 195.200 C 166.800 193.600,166.971 192.400,167.200 192.400 C 167.420 192.400,167.600 191.860,167.600 191.200 C 167.600 190.540,167.780 190.000,168.000 190.000 C 168.220 190.000,168.400 189.460,168.400 188.800 C 168.400 188.140,168.580 187.600,168.800 187.600 C 169.020 187.600,169.200 187.240,169.200 186.800 C 169.200 186.360,169.380 186.000,169.600 186.000 C 169.820 186.000,170.000 185.640,170.000 185.200 C 170.000 184.760,170.180 184.400,170.400 184.400 C 170.620 184.400,170.800 184.040,170.800 183.600 C 170.800 183.160,170.980 182.800,171.200 182.800 C 171.420 182.800,171.600 182.512,171.600 182.160 C 171.600 181.809,172.140 181.017,172.800 180.400 C 173.460 179.783,174.000 179.078,174.000 178.832 C 174.000 178.207,179.071 173.200,179.704 173.200 C 179.990 173.200,180.483 172.840,180.800 172.400 C 181.117 171.960,181.697 171.600,182.088 171.600 C 182.480 171.600,182.800 171.420,182.800 171.200 C 182.800 170.980,183.120 170.800,183.512 170.800 C 183.903 170.800,184.483 170.440,184.800 170.000 C 185.117 169.560,185.697 169.200,186.088 169.200 C 186.480 169.200,186.800 169.020,186.800 168.800 C 186.800 168.580,187.340 168.400,188.000 168.400 C 188.660 168.400,189.200 168.220,189.200 168.000 C 189.200 167.780,189.920 167.600,190.800 167.600 C 191.680 167.600,192.400 167.420,192.400 167.200 C 192.400 166.978,193.467 166.800,194.800 166.800 C 196.133 166.800,197.200 166.622,197.200 166.400 C 197.200 166.171,198.400 166.000,200.000 166.000 C 201.600 166.000,202.800 166.171,202.800 166.400 M204.000 173.200 C 203.683 173.640,203.103 174.000,202.712 174.000 C 202.320 174.000,202.000 174.180,202.000 174.400 C 202.000 174.620,201.680 174.800,201.288 174.800 C 200.897 174.800,200.317 175.160,200.000 175.600 C 199.683 176.040,199.143 176.400,198.800 176.400 C 198.457 176.400,197.917 176.760,197.600 177.200 C 197.283 177.640,196.703 178.000,196.312 178.000 C 195.920 178.000,195.600 178.180,195.600 178.400 C 195.600 178.620,195.280 178.800,194.888 178.800 C 194.497 178.800,193.917 179.160,193.600 179.600 C 193.283 180.040,192.780 180.400,192.483 180.400 C 190.770 180.400,189.793 191.850,191.371 193.429 C 192.940 194.997,193.200 194.282,193.200 188.400 C 193.200 183.298,193.263 182.800,193.912 182.800 C 194.303 182.800,194.883 182.440,195.200 182.000 C 195.517 181.560,196.057 181.200,196.400 181.200 C 196.743 181.200,197.283 180.840,197.600 180.400 C 197.917 179.960,198.497 179.600,198.888 179.600 C 199.280 179.600,199.600 179.420,199.600 179.200 C 199.600 178.980,199.920 178.800,200.312 178.800 C 200.703 178.800,201.283 178.440,201.600 178.000 C 202.715 176.454,202.800 177.308,202.800 190.000 C 202.800 202.533,202.817 202.800,203.600 202.800 C 204.040 202.800,204.400 202.620,204.400 202.400 C 204.400 202.180,204.720 202.000,205.112 202.000 C 205.503 202.000,206.083 201.640,206.400 201.200 C 206.717 200.760,207.257 200.400,207.600 200.400 C 207.943 200.400,208.483 200.040,208.800 199.600 C 209.117 199.160,209.697 198.800,210.088 198.800 C 210.480 198.800,210.800 198.620,210.800 198.400 C 210.800 198.180,211.120 198.000,211.512 198.000 C 211.903 198.000,212.483 197.640,212.800 197.200 C 213.394 196.376,215.600 196.061,215.600 196.800 C 215.600 197.020,215.920 197.200,216.312 197.200 C 216.703 197.200,217.283 197.560,217.600 198.000 C 219.338 200.411,219.600 199.362,219.600 190.000 C 219.600 181.831,219.549 181.200,218.888 181.200 C 218.497 181.200,217.917 180.840,217.600 180.400 C 217.283 179.960,216.743 179.600,216.400 179.600 C 216.057 179.600,215.517 179.240,215.200 178.800 C 214.883 178.360,214.343 178.000,214.000 178.000 C 213.657 178.000,213.117 177.640,212.800 177.200 C 212.483 176.760,211.943 176.400,211.600 176.400 C 211.257 176.400,210.717 176.040,210.400 175.600 C 210.083 175.160,209.543 174.800,209.200 174.800 C 208.857 174.800,208.317 174.440,208.000 174.000 C 207.683 173.560,207.103 173.200,206.712 173.200 C 206.320 173.200,206.000 173.020,206.000 172.800 C 206.000 172.093,204.596 172.374,204.000 173.200 M184.400 212.800 C 184.400 224.000,184.260 230.000,184.000 230.000 C 183.780 230.000,183.600 229.820,183.600 229.600 C 183.600 229.380,183.280 229.200,182.888 229.200 C 182.497 229.200,181.917 228.840,181.600 228.400 C 181.283 227.960,180.788 227.600,180.501 227.600 C 180.214 227.600,179.174 226.795,178.189 225.811 L 176.400 224.021 176.400 211.811 C 176.400 200.372,176.445 199.600,177.112 199.600 C 177.503 199.600,178.083 199.240,178.400 198.800 C 178.717 198.360,179.257 198.000,179.600 198.000 C 179.943 198.000,180.483 197.640,180.800 197.200 C 181.117 196.760,181.697 196.400,182.088 196.400 C 182.480 196.400,182.800 196.220,182.800 196.000 C 182.800 195.780,183.160 195.600,183.600 195.600 C 184.388 195.600,184.400 195.867,184.400 212.800 M213.200 215.829 C 213.200 231.203,213.155 231.600,211.429 231.600 C 211.083 231.600,210.800 231.780,210.800 232.000 C 210.800 232.220,210.080 232.400,209.200 232.400 C 208.320 232.400,207.600 232.580,207.600 232.800 C 207.600 233.020,207.060 233.200,206.400 233.200 L 205.200 233.200 205.200 219.200 C 205.200 206.046,205.243 205.200,205.912 205.200 C 206.303 205.200,206.883 204.840,207.200 204.400 C 207.517 203.960,208.097 203.600,208.488 203.600 C 208.880 203.600,209.200 203.420,209.200 203.200 C 209.200 202.980,209.520 202.800,209.912 202.800 C 210.303 202.800,210.883 202.440,211.200 202.000 C 213.087 199.382,213.200 200.165,213.200 215.829 " stroke="none" fill="#d4ac74" fill-rule="evenodd"></path><path id="path1" d="" stroke="none" fill="#d8ac74" fill-rule="evenodd"></path><path id="path2" d="" stroke="none" fill="#d8ac74" fill-rule="evenodd"></path><path id="path3" d="" stroke="none" fill="#d8ac74" fill-rule="evenodd"></path><path id="path4" d="" stroke="none" fill="#d8ac74" fill-rule="evenodd"></path></g></svg>