<svg xmlns="http://www.w3.org/2000/svg" width="310" height="200" viewBox="0 0 310 200" version="1.1"><path d="M 148.402 39.997 C 125.846 43.304, 106.877 59.431, 99.422 81.636 C 96.227 91.157, 95.834 104.920, 98.470 115 C 102.830 131.670, 114.931 146.533, 130.101 153.850 C 140.603 158.916, 145.097 159.945, 156.856 159.976 C 178.903 160.033, 196.923 150.136, 208.704 131.500 C 217.592 117.439, 219.992 97.232, 214.629 81.610 C 213.139 77.270, 210.737 71.702, 209.292 69.236 C 205.579 62.899, 196.858 53.764, 190.484 49.533 C 184.891 45.821, 173.276 40.959, 170.227 41.054 C 169.277 41.083, 170.988 41.904, 174.028 42.877 C 193.734 49.184, 208.738 64.584, 214.581 84.500 C 216.937 92.531, 216.938 107.480, 214.583 115.457 C 208.466 136.174, 192.329 152.112, 172 157.515 C 163.042 159.895, 148.530 159.451, 139.223 156.511 C 120.757 150.677, 106.306 136.155, 100.403 117.500 C 93.122 94.489, 101.384 67.646, 120.164 53.300 C 131.741 44.456, 143.008 40.739, 158.500 40.654 C 166.251 40.611, 167.488 40.436, 164 39.874 C 158.529 38.992, 155.072 39.019, 148.402 39.997 M 123.162 66.750 C 137.261 82.038, 137.201 81.990, 142.500 82.252 L 147.500 82.500 147.803 87 C 148.083 91.142, 148.756 92.156, 156.281 99.750 C 163.891 107.430, 167 109.516, 167 106.941 C 167 106.359, 166.630 106.111, 166.178 106.390 C 165.725 106.670, 161.699 103.209, 157.231 98.699 C 149.757 91.156, 149.082 90.140, 148.803 86 L 148.500 81.500 143.500 81.199 C 138.748 80.914, 138.114 80.516, 130.725 73.199 L 122.950 65.500 150.225 64.976 L 177.500 64.452 149.063 64.226 L 120.626 64 123.162 66.750 M 178.750 65.075 C 180.649 67.088, 180.260 68, 177.500 68 C 173.013 68, 174.875 69.882, 179.672 70.195 C 182.241 70.363, 184.492 70.950, 184.674 71.500 C 184.885 72.136, 181.330 72.384, 174.901 72.181 C 167.915 71.961, 165.001 72.193, 165.458 72.931 C 165.851 73.567, 170.649 74.075, 177.309 74.186 L 188.500 74.373 180.239 74.936 C 168.404 75.744, 169.365 77.441, 181.853 77.786 C 191.172 78.044, 192.257 78.268, 192.720 80.036 C 193.002 81.116, 193.934 82, 194.791 82 C 195.990 82, 195.808 81.425, 194 79.500 C 192.708 78.125, 191.028 77, 190.267 77 C 189.505 77, 189.151 76.565, 189.480 76.033 C 189.809 75.501, 189.160 74.492, 188.039 73.792 C 186.917 73.092, 186 71.982, 186 71.327 C 186 70.671, 185.208 69.884, 184.241 69.577 C 183.274 69.269, 182.036 68.031, 181.491 66.824 C 180.946 65.617, 179.825 64.432, 179 64.190 C 177.790 63.835, 177.741 64.006, 178.750 65.075 M 175.750 76.723 C 177.537 76.945, 180.463 76.945, 182.250 76.723 C 184.037 76.502, 182.575 76.320, 179 76.320 C 175.425 76.320, 173.963 76.502, 175.750 76.723 M 165.667 81.667 C 164.410 82.923, 164.989 84.254, 166.314 83.155 C 167.055 82.539, 173.043 81.927, 180.064 81.748 L 192.500 81.432 179.417 81.216 C 172.221 81.097, 166.033 81.300, 165.667 81.667 M 165.429 98.073 C 165.429 99.133, 165.782 100, 166.214 100 C 166.646 100, 167 99.352, 167 98.559 C 167 97.766, 166.646 96.900, 166.214 96.632 C 165.782 96.365, 165.429 97.014, 165.429 98.073 M 148 113.272 L 148 127.544 156.271 135.772 C 160.820 140.297, 165.079 144, 165.736 144 C 166.393 144, 162.896 140.111, 157.965 135.357 L 149 126.715 149 113.630 L 149 100.544 157.500 109 C 162.175 113.651, 166 116.997, 166 116.436 C 166 115.342, 149.741 99, 148.652 99 C 148.294 99, 148 105.422, 148 113.272" stroke="none" fill="#545454" fill-rule="evenodd"/><path d="M 149.500 40.957 C 137.586 42.855, 129.241 46.366, 120.164 53.300 C 101.384 67.646, 93.122 94.489, 100.403 117.500 C 108.355 142.631, 130.635 159.020, 156.802 158.988 C 176.475 158.964, 191.866 151.498, 204.186 136 C 212.361 125.717, 216.341 113.929, 216.341 100 C 216.341 88.936, 214.541 81.790, 209.160 71.500 C 198.296 50.724, 172.168 37.348, 149.500 40.957 M 123.147 66.735 C 137.274 82.050, 137.199 81.990, 142.500 82.252 L 147.500 82.500 147.803 87 C 148.083 91.142, 148.756 92.156, 156.281 99.750 C 160.777 104.287, 164.916 108, 165.478 108 C 166.121 108, 166.500 103.268, 166.500 95.250 L 166.500 82.500 181.398 82.222 L 196.297 81.945 193.974 79.472 C 192.697 78.113, 191.028 77, 190.267 77 C 189.505 77, 189.151 76.565, 189.480 76.033 C 189.809 75.501, 189.160 74.492, 188.039 73.792 C 186.917 73.092, 186 71.982, 186 71.327 C 186 70.671, 185.208 69.884, 184.241 69.577 C 183.274 69.269, 182.036 68.002, 181.491 66.759 L 180.500 64.500 150.548 64.235 L 120.597 63.970 123.147 66.735 M 175.750 76.723 C 177.537 76.945, 180.463 76.945, 182.250 76.723 C 184.037 76.502, 182.575 76.320, 179 76.320 C 175.425 76.320, 173.963 76.502, 175.750 76.723 M 148 113.272 L 148 127.544 156.271 135.772 C 160.820 140.297, 164.982 144, 165.521 144 C 166.125 144.001, 166.405 138.550, 166.253 129.752 L 166.006 115.503 157.753 107.272 C 153.214 102.745, 149.162 99.032, 148.750 99.021 C 148.338 99.009, 148 105.422, 148 113.272" stroke="none" fill="#040404" fill-rule="evenodd"/></svg>