<svg xmlns="http://www.w3.org/2000/svg" width="500" height="500" viewBox="0 0 500 500" version="1.1"><path d="M 75.463 250 C 75.463 276.675, 75.592 287.587, 75.749 274.250 C 75.907 260.913, 75.907 239.088, 75.749 225.750 C 75.592 212.412, 75.463 223.325, 75.463 250 M 424.463 250 C 424.463 276.675, 424.592 287.587, 424.749 274.250 C 424.907 260.913, 424.907 239.088, 424.749 225.750 C 424.592 212.412, 424.463 223.325, 424.463 250 M 78.461 250 C 78.461 275.025, 78.590 285.263, 78.749 272.750 C 78.908 260.238, 78.908 239.763, 78.749 227.250 C 78.590 214.738, 78.461 224.975, 78.461 250 M 421.461 250 C 421.461 275.025, 421.590 285.263, 421.749 272.750 C 421.908 260.238, 421.908 239.763, 421.749 227.250 C 421.590 214.738, 421.461 224.975, 421.461 250 M 84.455 250 C 84.455 271.725, 84.587 280.613, 84.749 269.750 C 84.910 258.887, 84.910 241.112, 84.749 230.250 C 84.587 219.387, 84.455 228.275, 84.455 250 M 286.395 248.500 C 286.396 256.200, 286.553 259.218, 286.743 255.206 C 286.934 251.195, 286.932 244.895, 286.741 241.206 C 286.549 237.518, 286.393 240.800, 286.395 248.500 M 318.125 240.625 C 316.933 243.741, 316.126 246.459, 316.332 246.665 C 316.538 246.872, 317.683 244.491, 318.875 241.375 C 320.067 238.259, 320.874 235.541, 320.668 235.335 C 320.462 235.128, 319.317 237.509, 318.125 240.625 M 372.360 244 C 372.360 249.225, 372.529 251.363, 372.735 248.750 C 372.941 246.137, 372.941 241.863, 372.735 239.250 C 372.529 236.637, 372.360 238.775, 372.360 244 M 380.208 244.050 C 380.093 249.303, 379.552 254.142, 379.004 254.804 C 378.456 255.466, 378.698 255.409, 379.543 254.678 C 380.771 253.616, 381.013 251.455, 380.747 243.924 L 380.415 234.500 380.208 244.050 M 148.395 249.500 C 148.396 257.200, 148.553 260.218, 148.743 256.206 C 148.934 252.195, 148.932 245.895, 148.741 242.206 C 148.549 238.518, 148.393 241.800, 148.395 249.500 M 152 236.403 C 152 237.353, 164.988 256, 165.649 256 C 165.924 256, 163.117 251.613, 159.411 246.250 C 151.518 234.830, 152 235.469, 152 236.403 M 169.395 249.500 C 169.396 257.200, 169.553 260.218, 169.743 256.206 C 169.934 252.195, 169.932 245.895, 169.741 242.206 C 169.549 238.518, 169.393 241.800, 169.395 249.500 M 183.395 249.500 C 183.396 257.200, 183.553 260.218, 183.743 256.206 C 183.934 252.195, 183.932 245.895, 183.741 242.206 C 183.549 238.518, 183.393 241.800, 183.395 249.500 M 206.500 237.155 C 207.600 237.756, 209.063 238.954, 209.750 239.815 C 210.438 240.677, 211 240.872, 211 240.248 C 211 238.977, 207.115 235.983, 205.527 236.030 C 204.962 236.047, 205.400 236.553, 206.500 237.155 M 224.320 242 C 224.320 245.575, 224.502 247.037, 224.723 245.250 C 224.945 243.463, 224.945 240.537, 224.723 238.750 C 224.502 236.963, 224.320 238.425, 224.320 242 M 241.395 249.500 C 241.396 257.200, 241.553 260.218, 241.743 256.206 C 241.934 252.195, 241.932 245.895, 241.741 242.206 C 241.549 238.518, 241.393 241.800, 241.395 249.500 M 341.552 237.942 C 340.586 239.010, 340.030 240.473, 340.318 241.192 C 340.722 242.199, 340.860 242.173, 340.921 241.079 C 340.964 240.297, 341.745 238.835, 342.655 237.829 C 343.565 236.823, 344.085 236, 343.810 236 C 343.535 236, 342.519 236.874, 341.552 237.942 M 99.385 251 C 99.385 257.875, 99.545 260.688, 99.740 257.250 C 99.936 253.813, 99.936 248.188, 99.740 244.750 C 99.545 241.313, 99.385 244.125, 99.385 251 M 195.605 241.586 C 195.271 242.458, 195.373 243.843, 195.832 244.664 C 196.421 245.716, 196.667 245.249, 196.667 243.078 C 196.667 239.593, 196.474 239.322, 195.605 241.586 M 294 243.063 C 294 245.917, 294.222 246.105, 297.250 245.813 C 299.819 245.566, 300.528 245.025, 300.633 243.235 C 300.744 241.350, 300.690 241.308, 300.314 242.985 C 299.693 245.746, 295 245.821, 295 243.070 C 295 241.863, 295.843 240.977, 297.250 240.706 C 299.179 240.334, 299.108 240.253, 296.750 240.136 C 294.319 240.016, 294 240.355, 294 243.063 M 166.272 246 C 166.272 248.475, 166.467 249.488, 166.706 248.250 C 166.944 247.012, 166.944 244.988, 166.706 243.750 C 166.467 242.512, 166.272 243.525, 166.272 246 M 151.412 244.369 C 151.123 245.122, 151.054 248.160, 151.258 251.119 L 151.630 256.500 151.815 250.128 C 151.987 244.214, 152.126 243.854, 153.750 245.128 C 155.336 246.371, 155.371 246.336, 154.128 244.750 C 152.474 242.641, 152.095 242.588, 151.412 244.369 M 323.616 245.559 C 323.251 246.509, 323.189 247.522, 323.476 247.810 C 323.764 248.098, 324.007 247.696, 324.015 246.917 C 324.028 245.750, 324.202 245.765, 325 247 C 325.533 247.825, 325.969 248.050, 325.969 247.500 C 325.969 246.950, 325.589 245.900, 325.124 245.166 C 324.454 244.109, 324.141 244.190, 323.616 245.559 M 340.063 245.211 C 339.996 247.025, 343.669 251, 345.411 251 C 345.980 251, 345.413 250.277, 344.151 249.393 C 342.889 248.509, 341.467 246.822, 340.992 245.643 C 340.324 243.988, 340.112 243.890, 340.063 245.211 M 314.111 251.111 C 313.495 252.878, 313.166 254.499, 313.380 254.713 C 313.594 254.927, 314.273 253.656, 314.889 251.889 C 315.505 250.122, 315.834 248.501, 315.620 248.287 C 315.406 248.073, 314.727 249.344, 314.111 251.111 M 124.607 250.582 C 123.460 253.571, 124.012 254, 129 254 C 131.750 254, 134 253.659, 134 253.243 C 134 252.826, 131.929 252.650, 129.398 252.852 C 125.103 253.193, 124.841 253.077, 125.465 251.109 C 126.240 248.670, 125.512 248.223, 124.607 250.582 M 326.374 250.250 C 326.811 251.608, 326.328 252.031, 324.219 252.136 C 321.697 252.263, 321.671 252.305, 323.865 252.721 C 326.810 253.279, 328.256 251.964, 326.864 249.992 C 325.984 248.745, 325.904 248.787, 326.374 250.250 M 224.320 257 C 224.320 260.575, 224.502 262.038, 224.723 260.250 C 224.945 258.462, 224.945 255.537, 224.723 253.750 C 224.502 251.963, 224.320 253.425, 224.320 257 M 294.150 253.750 C 294.014 256.698, 294.267 257, 296.878 257 C 298.460 257, 300.311 256.331, 300.989 255.513 C 302.416 253.794, 301.663 250.993, 299.781 251.015 C 298.823 251.027, 298.852 251.254, 299.896 251.914 C 301.978 253.233, 300.422 256, 297.598 256 C 295.676 256, 295.041 255.394, 294.716 253.250 C 294.329 250.690, 294.289 250.725, 294.150 253.750 M 365.086 254.639 C 365.039 255.816, 365.788 257.637, 366.750 258.686 C 367.712 259.736, 368.131 260.039, 367.681 259.361 C 367.230 258.683, 366.481 256.862, 366.017 255.314 C 365.332 253.032, 365.156 252.904, 365.086 254.639 M 192.965 254.734 C 193.771 255.051, 195.223 256.253, 196.192 257.405 C 197.925 259.468, 197.934 259.458, 196.726 256.758 C 195.957 255.037, 194.755 254.042, 193.500 254.087 C 192.088 254.137, 191.930 254.327, 192.965 254.734 M 138 255.365 C 138 256.554, 140.869 263, 141.398 263 C 141.673 263, 141.199 261.313, 140.344 259.250 C 138.739 255.378, 138 254.153, 138 255.365 M 311.168 258.949 C 310.583 260.627, 310.317 262, 310.577 262 C 311.252 262, 313.139 256.805, 312.644 256.310 C 312.417 256.083, 311.753 257.271, 311.168 258.949" stroke="none" fill="#c88238" fill-rule="evenodd"/><path d="M 76 250 L 76 298 250 298 L 424 298 424 250 L 424 202 250 202 L 76 202 76 250 M 78 250 L 78 295 250 295 L 422 295 422 250 L 422 205 250 205 L 78 205 78 250 M 85 250 L 85 289 167.500 289 L 250 289 250 250 L 250 211 167.500 211 L 85 211 85 250 M 287 248.397 L 287 262 294.550 262 C 302.426 262, 307.242 260.417, 308.379 257.455 C 309.476 254.597, 309.048 252.048, 307.152 250.152 C 305.564 248.564, 305.494 248.045, 306.652 246.461 C 308.640 243.742, 308.292 239.574, 305.896 237.405 C 304.263 235.927, 301.908 235.421, 295.396 235.147 L 287 234.795 287 248.397 M 316.215 248.198 L 311.151 261.500 314.315 261.831 C 316.649 262.076, 317.843 261.616, 318.862 260.081 C 320.841 257.101, 329.516 257.040, 330.290 260 C 330.690 261.532, 331.654 262, 334.406 262 C 336.383 262, 337.996 261.887, 337.990 261.750 C 337.985 261.613, 335.782 255.650, 333.094 248.500 L 328.207 235.500 324.743 235.198 L 321.279 234.896 316.215 248.198 M 346.354 235.649 C 341.110 236.780, 338.861 243.978, 342.496 247.996 C 343.502 249.108, 346.058 250.536, 348.175 251.170 C 352.401 252.437, 354.527 254.338, 353.527 255.956 C 352.549 257.539, 348.015 257.204, 347.362 255.500 C 347.006 254.574, 345.487 254, 343.393 254 C 339.518 254, 339.476 254.087, 341.483 257.966 C 344.413 263.633, 354.926 264.453, 358.957 259.328 C 363.118 254.038, 360.755 249.256, 352.500 246.255 C 346.957 244.240, 345.830 241.692, 350.256 241.183 C 352.053 240.976, 353.221 241.411, 353.613 242.433 C 354.504 244.757, 360 244.534, 360 242.174 C 360 237.894, 352.523 234.318, 346.354 235.649 M 365.155 245.323 C 365.596 257.231, 366.895 260.150, 372.593 262.031 C 377.804 263.750, 383.465 261.926, 386.044 257.696 C 387.623 255.107, 387.993 252.649, 387.996 244.750 L 388 235 384.500 235 L 381 235 381 244.300 C 381 254.182, 380.275 256, 376.335 256 C 373 256, 372 253.130, 372 243.566 L 372 235 368.387 235 L 364.773 235 365.155 245.323 M 91 237.500 C 91 238.583, 92.111 239, 95 239 L 99 239 99 251 C 99 262.333, 99.111 263, 101 263 C 102.889 263, 103 262.333, 103 251 L 103 239 107.500 239 C 110.833 239, 112 238.611, 112 237.500 C 112 236.262, 110.167 236, 101.500 236 C 92.833 236, 91 236.262, 91 237.500 M 122.126 248.697 C 119.302 255.739, 116.994 261.837, 116.996 262.250 C 116.998 262.663, 117.856 263, 118.902 263 C 120.117 263, 121.182 261.915, 121.850 260 C 122.859 257.106, 123.113 257, 129.035 257 C 134.938 257, 135.217 257.115, 136.306 260 C 137.091 262.078, 138.113 263, 139.633 263 C 141.736 263, 141.606 262.446, 136.517 249.750 C 129.355 231.883, 128.881 231.848, 122.126 248.697 M 148 249.500 C 148 262.250, 148.109 263, 149.964 263 C 151.762 263, 151.952 262.176, 152.214 253.250 L 152.500 243.500 159.325 253.250 C 163.940 259.844, 166.772 263, 168.075 263 C 169.880 263, 170 262.159, 170 249.500 C 170 236.750, 169.891 236, 168.036 236 C 166.241 236, 166.048 236.823, 165.786 245.612 L 165.500 255.225 159 245.643 C 154.058 238.357, 151.961 236.053, 150.250 236.030 C 148.026 236, 148 236.158, 148 249.500 M 180 249.500 C 180 262.333, 180.099 263, 182 263 C 183.901 263, 184 262.333, 184 249.500 C 184 236.667, 183.901 236, 182 236 C 180.099 236, 180 236.667, 180 249.500 M 194.455 238.455 C 193.105 239.805, 192 241.769, 192 242.820 C 192 246.230, 195.707 249.689, 200.711 250.949 C 206.323 252.362, 208 253.558, 208 256.147 C 208 260.593, 198.518 260.625, 196.513 256.185 C 195.288 253.473, 192 253.257, 192 255.889 C 192 259.215, 195.257 262.091, 199.700 262.687 C 207.653 263.753, 212 261.208, 212 255.485 C 212 251.447, 209.791 249.603, 202.340 247.421 C 193.959 244.967, 194.314 239.100, 202.849 239.014 C 203.591 239.006, 205.524 240.420, 207.144 242.154 C 210.556 245.807, 212.719 245.021, 211.085 240.724 C 209.784 237.302, 207.148 236, 201.520 236 C 197.958 236, 196.351 236.558, 194.455 238.455 M 221 249.500 C 221 262.333, 221.099 263, 223 263 C 224.778 263, 225 262.333, 225 257 L 225 251 231.500 251 L 238 251 238 257 C 238 262.333, 238.222 263, 240 263 C 241.901 263, 242 262.333, 242 249.500 C 242 236.667, 241.901 236, 240 236 C 238.222 236, 238 236.667, 238 242 L 238 248 231.500 248 L 225 248 225 242 C 225 236.667, 224.778 236, 223 236 C 221.099 236, 221 236.667, 221 249.500 M 294 243.063 C 294 245.916, 294.223 246.105, 297.242 245.813 C 302.870 245.269, 301.978 240.054, 296.250 240.015 C 294.403 240.003, 294 240.549, 294 243.063 M 127.060 246.750 C 126.321 248.813, 125.508 251.063, 125.252 251.750 C 124.927 252.623, 126.026 253, 128.893 253 C 131.152 253, 133 252.678, 133 252.283 C 133 250.789, 129.699 243, 129.065 243 C 128.700 243, 127.798 244.688, 127.060 246.750 M 323.174 246.930 C 321.458 251.853, 321.697 253, 324.441 253 C 327.768 253, 328.016 252.152, 326.043 247.531 L 324.349 243.561 323.174 246.930 M 294 254 C 294 256.638, 294.347 257, 296.878 257 C 300.139 257, 302.509 254.768, 301.643 252.513 C 301.277 251.558, 299.761 251, 297.531 251 C 294.274 251, 294 251.233, 294 254" stroke="none" fill="#040404" fill-rule="evenodd"/></svg>