<svg xmlns="http://www.w3.org/2000/svg" width="495" height="77" viewBox="0 0 495 77" version="1.1"><path d="M 0.425 23 C 0.425 34.825, 0.569 39.663, 0.746 33.750 C 0.923 27.838, 0.923 18.163, 0.746 12.250 C 0.569 6.338, 0.425 11.175, 0.425 23 M 6.355 10.500 C 6.352 15.450, 6.521 17.601, 6.731 15.280 C 6.940 12.959, 6.943 8.909, 6.736 6.280 C 6.530 3.651, 6.358 5.550, 6.355 10.500 M 103.500 26.500 C 103.500 36.570, 103.838 44.600, 104.250 44.345 C 104.662 44.091, 105 36.060, 105 26.500 C 105 16.940, 104.662 8.909, 104.250 8.655 C 103.838 8.400, 103.500 16.430, 103.500 26.500 M 109.441 9.292 C 109.169 10.003, 109.072 17.540, 109.226 26.042 L 109.507 41.500 110.004 24.749 C 110.277 15.535, 110.373 7.998, 110.219 7.999 C 110.064 7.999, 109.714 8.581, 109.441 9.292 M 465.500 26.500 C 465.500 36.570, 465.837 44.600, 466.250 44.345 C 466.663 44.091, 467 36.060, 467 26.500 C 467 16.940, 466.663 8.909, 466.250 8.655 C 465.837 8.400, 465.500 16.430, 465.500 26.500 M 164.413 26.500 C 164.414 36.400, 164.564 40.315, 164.746 35.199 C 164.928 30.084, 164.927 21.984, 164.744 17.199 C 164.561 12.415, 164.412 16.600, 164.413 26.500 M 219.789 10.526 C 219.480 11.612, 218.922 13.400, 218.550 14.500 C 218.177 15.600, 218.605 15.236, 219.500 13.690 C 220.395 12.145, 220.952 10.356, 220.739 9.716 C 220.525 9.075, 220.098 9.440, 219.789 10.526 M 247.636 10 C 248.207 10.825, 251.560 15.325, 255.087 20 C 261.471 28.462, 261.503 28.536, 262.081 36.500 L 262.662 44.500 262.831 36.923 L 263 29.347 255.946 19.923 C 249.908 11.858, 244.204 5.047, 247.636 10 M 315.413 26.500 C 315.414 36.400, 315.564 40.315, 315.746 35.199 C 315.928 30.084, 315.927 21.984, 315.744 17.199 C 315.561 12.415, 315.412 16.600, 315.413 26.500 M 320.343 16.500 C 320.346 20.900, 320.522 22.576, 320.733 20.224 C 320.945 17.872, 320.942 14.272, 320.727 12.224 C 320.512 10.176, 320.339 12.100, 320.343 16.500 M 419.058 9.240 C 418.973 10.329, 431.369 35, 432.002 35 C 432.700 35, 444.216 11.883, 443.750 11.417 C 443.555 11.222, 440.961 15.999, 437.984 22.032 C 435.008 28.064, 432.323 33, 432.017 33 C 431.712 33, 428.684 27.487, 425.289 20.750 C 421.894 14.012, 419.090 8.833, 419.058 9.240 M 412.223 26.050 C 412.069 37.508, 411.618 43.046, 410.757 44.050 C 409.946 44.996, 410.129 44.957, 411.283 43.939 C 412.864 42.543, 413.019 40.636, 412.749 25.939 L 412.447 9.500 412.223 26.050 M 451.223 26.128 C 451.024 40.937, 451.191 42.905, 452.750 44.128 C 454.293 45.338, 454.355 45.314, 453.276 43.928 C 452.455 42.875, 451.952 36.944, 451.749 25.928 L 451.447 9.500 451.223 26.128 M 169.400 26.500 C 169.401 34.750, 169.556 37.992, 169.744 33.704 C 169.932 29.417, 169.931 22.667, 169.742 18.704 C 169.552 14.742, 169.399 18.250, 169.400 26.500 M 196.899 13.500 C 198.585 16.762, 199.970 18.570, 199.962 17.500 C 199.959 16.950, 199.035 15.375, 197.911 14 C 196.552 12.339, 196.213 12.172, 196.899 13.500 M 258.041 16.407 C 259.920 19.024, 261.889 21.431, 262.417 21.757 C 262.944 22.084, 261.838 20.209, 259.959 17.593 C 258.080 14.976, 256.111 12.569, 255.583 12.243 C 255.056 11.916, 256.162 13.791, 258.041 16.407 M 273.288 13.250 C 268.951 18.917, 266.665 22.299, 267.521 21.782 C 268.703 21.068, 275.343 12, 274.685 12 C 274.443 12, 273.814 12.563, 273.288 13.250 M 471.320 18 C 471.320 21.575, 471.502 23.038, 471.723 21.250 C 471.945 19.462, 471.945 16.538, 471.723 14.750 C 471.502 12.962, 471.320 14.425, 471.320 18 M 61.924 15.750 L 59.500 18.500 62.250 16.076 C 63.763 14.742, 65 13.505, 65 13.326 C 65 12.541, 64.190 13.180, 61.924 15.750 M 369.924 15.750 L 367.500 18.500 370.250 16.076 C 372.820 13.810, 373.459 13, 372.674 13 C 372.495 13, 371.258 14.238, 369.924 15.750 M 91.638 16.500 C 93.950 20.448, 94 20.507, 94 19.277 C 94 18.697, 93.073 17.159, 91.941 15.861 L 89.881 13.500 91.638 16.500 M 192.697 15.972 C 193.356 16.835, 194.340 18.657, 194.884 20.021 C 195.542 21.669, 195.894 21.932, 195.937 20.806 C 195.971 19.874, 194.988 18.052, 193.750 16.757 C 192.512 15.462, 192.039 15.108, 192.697 15.972 M 224.778 16.935 C 225.704 18.550, 226.600 19.733, 226.769 19.565 C 227.310 19.023, 224.708 14, 223.886 14 C 223.450 14, 223.851 15.321, 224.778 16.935 M 229.071 14.500 C 229.071 15.050, 229.714 16.625, 230.500 18 C 231.286 19.375, 231.929 20.050, 231.929 19.500 C 231.929 18.950, 231.286 17.375, 230.500 16 C 229.714 14.625, 229.071 13.950, 229.071 14.500 M 399.638 16.500 C 401.950 20.448, 402 20.507, 402 19.277 C 402 18.697, 401.073 17.159, 399.941 15.861 L 397.881 13.500 399.638 16.500 M 445.583 15.643 C 445.237 16.547, 445.189 17.522, 445.476 17.810 C 445.764 18.098, 446.094 17.696, 446.208 16.917 C 446.322 16.137, 446.679 22.025, 447 30 L 447.584 44.500 447.792 29.250 C 447.981 15.369, 447.300 11.170, 445.583 15.643 M 416 28.794 C 416 40.919, 416.230 42.929, 417.750 44.079 C 419.239 45.206, 419.313 45.194, 418.250 44.002 C 417.379 43.025, 417.005 38.495, 417.015 29.050 C 417.026 19.219, 417.322 15.912, 418.091 17 C 418.954 18.220, 419.080 18.232, 418.764 17.063 C 418.550 16.272, 417.841 15.447, 417.188 15.229 C 416.309 14.936, 416 18.462, 416 28.794 M 221.162 18.543 C 219.487 22.220, 219.807 23.005, 221.618 19.662 C 222.464 18.100, 222.969 16.636, 222.741 16.407 C 222.512 16.179, 221.802 17.140, 221.162 18.543 M 94.310 26.500 C 94.315 29.800, 94.502 31.029, 94.725 29.232 C 94.947 27.435, 94.943 24.735, 94.715 23.232 C 94.486 21.729, 94.304 23.200, 94.310 26.500 M 402.310 26.500 C 402.315 29.800, 402.502 31.029, 402.725 29.232 C 402.947 27.435, 402.943 24.735, 402.715 23.232 C 402.486 21.729, 402.304 23.200, 402.310 26.500 M 89.286 26.500 C 89.294 29.250, 89.488 30.256, 89.718 28.736 C 89.947 27.216, 89.941 24.966, 89.704 23.736 C 89.467 22.506, 89.279 23.750, 89.286 26.500 M 214.162 24.543 C 212.487 28.220, 212.807 29.005, 214.618 25.662 C 215.464 24.100, 215.969 22.636, 215.741 22.407 C 215.512 22.179, 214.802 23.140, 214.162 24.543 M 397.286 26.500 C 397.294 29.250, 397.488 30.256, 397.718 28.736 C 397.947 27.216, 397.941 24.966, 397.704 23.736 C 397.467 22.506, 397.279 23.750, 397.286 26.500 M 6.374 33.500 C 6.376 39.550, 6.541 41.896, 6.740 38.713 C 6.939 35.531, 6.937 30.581, 6.736 27.713 C 6.535 24.846, 6.372 27.450, 6.374 33.500 M 201.232 26 C 201.232 27.925, 201.438 28.712, 201.689 27.750 C 201.941 26.788, 201.941 25.212, 201.689 24.250 C 201.438 23.288, 201.232 24.075, 201.232 26 M 218.162 25.543 C 217.523 26.946, 217.018 28.635, 217.039 29.297 C 217.061 29.959, 217.743 28.969, 218.554 27.099 C 220.263 23.161, 219.902 21.726, 218.162 25.543 M 228 23.383 C 228 24.456, 230.975 30, 231.551 30 C 231.826 30, 231.308 28.538, 230.399 26.750 C 228.542 23.100, 228 22.339, 228 23.383 M 233.071 23.500 C 233.071 24.050, 233.714 25.625, 234.500 27 C 235.286 28.375, 235.929 29.050, 235.929 28.500 C 235.929 27.950, 235.286 26.375, 234.500 25 C 233.714 23.625, 233.071 22.950, 233.071 23.500 M 489.500 26 C 489.500 27.650, 489.837 29, 490.250 29 C 490.663 29, 491 27.650, 491 26 C 491 24.350, 490.663 23, 490.250 23 C 489.837 23, 489.500 24.350, 489.500 26 M 196.195 26.500 C 196.215 28.150, 196.439 28.704, 196.693 27.731 C 196.947 26.758, 196.930 25.408, 196.656 24.731 C 196.382 24.054, 196.175 24.850, 196.195 26.500 M 422.100 25.500 C 422.100 26.050, 424.080 30.325, 426.500 35 C 428.920 39.675, 430.900 43.050, 430.900 42.500 C 430.900 41.950, 428.920 37.675, 426.500 33 C 424.080 28.325, 422.100 24.950, 422.100 25.500 M 320.349 36 C 320.349 40.675, 320.522 42.587, 320.732 40.250 C 320.943 37.912, 320.943 34.087, 320.732 31.750 C 320.522 29.412, 320.349 31.325, 320.349 36 M 471.328 34.500 C 471.333 38.350, 471.513 39.802, 471.730 37.728 C 471.946 35.653, 471.943 32.503, 471.722 30.728 C 471.501 28.952, 471.324 30.650, 471.328 34.500 M 267.343 36.500 C 267.346 40.900, 267.522 42.576, 267.733 40.224 C 267.945 37.872, 267.942 34.272, 267.727 32.224 C 267.512 30.176, 267.339 32.100, 267.343 36.500 M 200.116 31.168 C 200.052 32.086, 199.741 33.661, 199.424 34.668 C 198.879 36.404, 198.909 36.407, 199.992 34.719 C 200.620 33.739, 200.931 32.164, 200.683 31.219 C 200.277 29.670, 200.221 29.665, 200.116 31.168 M 236.071 30.500 C 236.071 31.050, 236.714 32.625, 237.500 34 C 238.286 35.375, 238.929 36.050, 238.929 35.500 C 238.929 34.950, 238.286 33.375, 237.500 32 C 236.714 30.625, 236.071 29.950, 236.071 30.500 M 91.736 36.256 L 89.971 39.500 91.986 37.139 C 93.700 35.130, 94.616 32.984, 93.750 33.006 C 93.612 33.010, 92.706 34.472, 91.736 36.256 M 399.736 36.256 L 397.971 39.500 399.986 37.139 C 401.700 35.130, 402.616 32.984, 401.750 33.006 C 401.613 33.010, 400.706 34.472, 399.736 36.256 M 192.086 37.382 L 189.672 40.500 192.533 37.780 C 194.106 36.284, 195.193 34.881, 194.947 34.662 C 194.701 34.443, 193.414 35.667, 192.086 37.382 M 209.162 36.543 C 207.487 40.220, 207.807 41.005, 209.618 37.662 C 210.464 36.100, 210.969 34.636, 210.741 34.407 C 210.512 34.179, 209.802 35.140, 209.162 36.543 M 214.079 34.668 C 214.036 35.311, 213.741 36.661, 213.424 37.668 C 212.877 39.409, 212.906 39.412, 213.995 37.712 C 214.626 36.729, 214.920 35.379, 214.650 34.712 C 214.295 33.837, 214.136 33.825, 214.079 34.668 M 62 37.500 C 63.292 38.875, 64.574 40, 64.849 40 C 65.124 40, 64.292 38.875, 63 37.500 C 61.708 36.125, 60.426 35, 60.151 35 C 59.876 35, 60.708 36.125, 62 37.500 M 370 37.500 C 371.292 38.875, 372.574 40, 372.849 40 C 373.124 40, 372.292 38.875, 371 37.500 C 369.708 36.125, 368.426 35, 368.151 35 C 367.876 35, 368.708 36.125, 370 37.500 M 196.511 39.623 C 195.566 41.066, 195.287 41.941, 195.891 41.567 C 197.045 40.854, 199.374 37, 198.650 37 C 198.419 37, 197.457 38.180, 196.511 39.623 M 240 39.723 C 240 40.303, 240.927 41.841, 242.059 43.139 L 244.119 45.500 242.362 42.500 C 240.050 38.552, 240 38.493, 240 39.723 M 48.118 63.750 C 48.183 64.713, 48.580 66.850, 49 68.500 C 49.719 71.325, 49.774 71.354, 49.949 69 L 50.135 66.500 51.220 68.750 C 51.817 69.987, 52.657 71, 53.085 71 C 53.514 71, 54.200 69.987, 54.609 68.750 L 55.353 66.500 56.077 69 C 56.640 70.944, 56.823 70.444, 56.900 66.750 C 57.011 61.454, 55.518 60.365, 54.500 65 C 54.138 66.650, 53.463 68, 53 68 C 52.537 68, 51.862 66.650, 51.500 65 C 50.804 61.830, 47.916 60.763, 48.118 63.750 M 63.394 63.416 C 63.095 64.194, 62.997 66.107, 63.175 67.666 C 63.753 72.712, 71 71.704, 71 66.578 C 71 65.380, 70.460 63.860, 69.800 63.200 C 68.151 61.551, 64.057 61.689, 63.394 63.416 M 76.398 63.166 C 75.976 63.848, 76.869 65.281, 78.550 66.621 C 81.712 69.143, 81.138 71.192, 77.846 69.136 C 76.148 68.075, 75.860 68.082, 76.218 69.174 C 76.458 69.903, 77.800 70.637, 79.199 70.804 C 82.809 71.235, 83.610 68.446, 80.468 66.387 C 79.111 65.498, 78 64.372, 78 63.885 C 78 62.531, 80.766 62.833, 81.338 64.250 C 81.639 64.997, 81.874 64.795, 81.921 63.750 C 82.013 61.722, 77.580 61.253, 76.398 63.166 M 88.750 62.662 C 89.451 62.945, 90 64.886, 90 67.083 C 90 69.237, 90.450 71, 91 71 C 91.550 71, 92 69.233, 92 67.073 C 92 64.175, 92.458 63.027, 93.750 62.689 C 94.713 62.438, 93.700 62.215, 91.500 62.195 C 89.300 62.175, 88.063 62.385, 88.750 62.662 M 107.750 62.662 C 108.451 62.945, 109 64.886, 109 67.083 C 109 69.237, 109.450 71, 110 71 C 110.550 71, 111 69.233, 111 67.073 C 111 64.175, 111.458 63.027, 112.750 62.689 C 113.713 62.438, 112.700 62.215, 110.500 62.195 C 108.300 62.175, 107.063 62.385, 107.750 62.662 M 119 66.500 C 119 68.975, 119.408 71, 119.906 71 C 120.405 71, 120.577 70.100, 120.290 69 C 119.554 66.185, 122.400 66.389, 123.780 69.250 C 124.728 71.217, 124.873 70.904, 124.932 66.750 C 124.998 62.124, 124.922 62, 122 62 C 119.111 62, 119 62.167, 119 66.500 M 131.357 66 C 131.482 69.933, 131.801 70.543, 133.887 70.837 C 135.200 71.023, 136.655 70.573, 137.122 69.837 C 138.306 67.969, 138.213 62, 137 62 C 136.450 62, 136 63.833, 136 66.073 C 136 69.413, 135.685 70.087, 134.250 69.814 C 133.074 69.590, 132.289 68.171, 131.857 65.490 L 131.214 61.500 131.357 66 M 143.316 63.620 C 142.944 64.588, 143.107 65.536, 143.678 65.726 C 144.249 65.916, 145.568 66.699, 146.608 67.465 C 148.441 68.814, 148.442 68.879, 146.649 69.574 C 145.490 70.023, 144.468 69.769, 143.914 68.896 C 143.214 67.790, 143.027 67.877, 143.015 69.316 C 143.004 70.710, 143.639 71.059, 145.741 70.816 C 149.546 70.377, 149.968 67.318, 146.410 65.966 C 144.390 65.198, 143.968 64.632, 144.795 63.805 C 145.622 62.978, 146.361 63.053, 147.620 64.092 C 149.098 65.312, 149.260 65.300, 148.834 64 C 148.108 61.781, 144.127 61.507, 143.316 63.620 M 155.250 62.689 C 156.542 63.027, 157 64.175, 157 67.073 C 157 69.233, 157.388 71, 157.863 71 C 158.337 71, 158.733 69.987, 158.742 68.750 C 158.777 63.975, 159.056 63.132, 160.750 62.689 C 161.713 62.438, 160.475 62.232, 158 62.232 C 155.525 62.232, 154.287 62.438, 155.250 62.689 M 167 66.500 C 167 70.941, 167.043 70.998, 170.250 70.850 C 173.275 70.711, 173.310 70.671, 170.750 70.284 C 167.440 69.782, 167.095 67.313, 170.250 66.706 L 172.500 66.272 170.250 66.136 C 167.050 65.942, 167.448 63.216, 170.750 62.716 C 173.310 62.329, 173.275 62.289, 170.250 62.150 C 167.043 62.002, 167 62.059, 167 66.500 M 178 66.500 C 178 70.762, 178.148 71, 180.800 71 C 184.131 71, 186 69.383, 186 66.500 C 186 63.617, 184.131 62, 180.800 62 C 178.148 62, 178 62.238, 178 66.500 M 198 66.437 C 198 68.946, 198.450 71, 199 71 C 199.550 71, 200 70.100, 200 69 C 200 67.900, 200.492 67, 201.094 67 C 201.695 67, 202.423 67.900, 202.710 69 C 203.608 72.432, 204.627 71.193, 204.562 66.750 C 204.503 62.701, 204.346 62.485, 201.250 62.187 C 198.012 61.874, 198 61.891, 198 66.437 M 210 66.500 C 210 70.938, 210.045 70.998, 213.250 70.864 C 215.600 70.765, 215.877 70.608, 214.250 70.294 C 213.012 70.056, 212 69.248, 212 68.500 C 212 67.752, 213.012 66.944, 214.250 66.706 L 216.500 66.272 214.250 66.136 C 213.012 66.061, 212 65.356, 212 64.570 C 212 63.783, 213.012 62.944, 214.250 62.706 C 215.877 62.392, 215.600 62.235, 213.250 62.136 C 210.045 62.002, 210 62.062, 210 66.500 M 222.567 66.125 C 220.734 70.706, 221.216 72.394, 223.510 69.427 C 224.922 67.601, 225.072 67.592, 226.360 69.250 C 228.627 72.166, 228.959 71.237, 227.345 66.500 C 226.502 64.025, 225.453 62, 225.015 62 C 224.576 62, 223.474 63.856, 222.567 66.125 M 234 66.500 C 234 70.938, 234.045 70.998, 237.250 70.864 C 239.600 70.765, 239.877 70.608, 238.250 70.294 C 236.513 69.960, 235.973 69.136, 235.882 66.680 C 235.816 64.931, 235.816 63.163, 235.882 62.750 C 235.947 62.337, 235.550 62, 235 62 C 234.450 62, 234 64.025, 234 66.500 M 252 66.500 L 252 71 255.750 70.850 C 258.766 70.730, 258.962 70.619, 256.750 70.284 C 253.440 69.782, 253.095 67.313, 256.250 66.706 L 258.500 66.272 256.250 66.136 C 255.012 66.061, 254 65.356, 254 64.570 C 254 63.783, 255.012 62.944, 256.250 62.706 C 257.877 62.392, 257.600 62.235, 255.250 62.136 C 252.045 62.002, 252 62.062, 252 66.500 M 264.316 63.620 C 263.944 64.588, 264.107 65.536, 264.678 65.726 C 265.249 65.916, 266.568 66.699, 267.608 67.465 C 269.441 68.814, 269.442 68.879, 267.649 69.574 C 266.490 70.023, 265.468 69.769, 264.914 68.896 C 264.214 67.790, 264.027 67.877, 264.015 69.316 C 264.004 70.710, 264.639 71.059, 266.741 70.816 C 270.546 70.377, 270.968 67.318, 267.410 65.966 C 265.390 65.198, 264.968 64.632, 265.795 63.805 C 266.622 62.978, 267.361 63.053, 268.620 64.092 C 270.098 65.312, 270.260 65.300, 269.834 64 C 269.108 61.781, 265.127 61.507, 264.316 63.620 M 276.250 62.689 C 277.542 63.027, 278 64.175, 278 67.073 C 278 69.233, 278.450 71, 279 71 C 279.550 71, 280 69.237, 280 67.083 C 280 64.886, 280.549 62.945, 281.250 62.662 C 281.938 62.385, 280.700 62.175, 278.500 62.195 C 276.300 62.215, 275.288 62.438, 276.250 62.689 M 288.567 66.125 C 286.734 70.706, 287.216 72.394, 289.510 69.427 C 290.922 67.601, 291.072 67.592, 292.360 69.250 C 294.627 72.166, 294.959 71.237, 293.345 66.500 C 292.502 64.025, 291.453 62, 291.015 62 C 290.576 62, 289.474 63.856, 288.567 66.125 M 300.250 62.689 C 301.542 63.027, 302 64.175, 302 67.073 C 302 69.233, 302.450 71, 303 71 C 303.550 71, 304 69.233, 304 67.073 C 304 64.175, 304.458 63.027, 305.750 62.689 C 306.712 62.438, 305.475 62.232, 303 62.232 C 300.525 62.232, 299.288 62.438, 300.250 62.689 M 312 66.500 C 312 70.941, 312.043 70.998, 315.250 70.850 C 318.275 70.711, 318.310 70.671, 315.750 70.284 C 312.440 69.782, 312.095 67.313, 315.250 66.706 L 317.500 66.272 315.250 66.136 C 312.050 65.942, 312.448 63.216, 315.750 62.716 C 318.310 62.329, 318.275 62.289, 315.250 62.150 C 312.043 62.002, 312 62.059, 312 66.500 M 332.109 64.250 C 330.168 69.438, 329.896 71, 330.933 71 C 331.520 71, 332 70.325, 332 69.500 C 332 68.675, 332.689 68, 333.531 68 C 334.374 68, 335.322 68.675, 335.638 69.500 C 335.955 70.325, 336.560 71, 336.983 71 C 337.406 71, 337.024 68.975, 336.134 66.500 C 334.327 61.476, 333.351 60.930, 332.109 64.250 M 343.116 66.684 C 343.180 69.333, 343.418 70.813, 343.646 69.974 C 343.874 69.135, 345.059 68.010, 346.280 67.474 C 349.543 66.042, 349.196 62.580, 345.750 62.184 C 343.074 61.876, 343.003 61.996, 343.116 66.684 M 354 66.434 C 354 68.945, 354.450 71, 355 71 C 355.550 71, 356 70.355, 356 69.567 C 356 68.779, 356.926 67.841, 358.058 67.481 C 361.210 66.481, 360.248 62.586, 356.750 62.184 C 354.105 61.879, 354 62.042, 354 66.434 M 365 66.500 C 365 70.938, 365.045 70.998, 368.250 70.864 C 370.600 70.765, 370.877 70.608, 369.250 70.294 C 367.372 69.933, 367 69.211, 367 65.930 C 367 63.769, 366.550 62, 366 62 C 365.450 62, 365 64.025, 365 66.500 M 377.286 66.500 C 377.294 69.250, 377.488 70.256, 377.718 68.736 C 377.947 67.216, 377.941 64.966, 377.704 63.736 C 377.467 62.506, 377.279 63.750, 377.286 66.500 M 384.123 64.183 C 382.789 67.764, 384.266 70.500, 387.531 70.500 C 389.135 70.500, 390.545 69.858, 390.829 69 C 391.253 67.718, 391.085 67.698, 389.675 68.862 C 386.355 71.602, 383.523 67.871, 385.985 64 C 386.793 62.730, 387.267 62.704, 389.078 63.826 C 390.855 64.928, 391.144 64.928, 390.782 63.826 C 390.542 63.097, 389.140 62.357, 387.665 62.183 C 385.619 61.941, 384.781 62.414, 384.123 64.183 M 397.764 66.500 C 396.846 68.975, 396.476 71, 396.941 71 C 397.406 71, 398.045 70.325, 398.362 69.500 C 398.678 68.675, 399.626 68, 400.469 68 C 401.311 68, 402 68.675, 402 69.500 C 402 70.325, 402.480 71, 403.067 71 C 404.104 71, 403.832 69.438, 401.891 64.250 C 400.646 60.923, 399.624 61.480, 397.764 66.500 M 409.750 62.662 C 410.451 62.945, 411 64.886, 411 67.083 C 411 69.237, 411.450 71, 412 71 C 412.550 71, 413 69.233, 413 67.073 C 413 64.175, 413.458 63.027, 414.750 62.689 C 415.712 62.438, 414.700 62.215, 412.500 62.195 C 410.300 62.175, 409.063 62.385, 409.750 62.662 M 421 66.500 C 421 68.975, 421.450 71, 422 71 C 422.550 71, 423 68.975, 423 66.500 C 423 64.025, 422.550 62, 422 62 C 421.450 62, 421 64.025, 421 66.500 M 429.200 63.200 C 426.188 66.212, 428.860 71.456, 433.086 70.827 C 437.634 70.150, 437.307 62, 432.732 62 C 431.450 62, 429.860 62.540, 429.200 63.200 M 442 66.500 C 442 70.951, 443.951 73.090, 444.052 68.750 L 444.105 66.500 445.674 68.750 C 448.037 72.137, 449 71.486, 449 66.500 C 449 64.025, 448.550 62, 448 62 C 447.450 62, 446.982 63.237, 446.960 64.750 L 446.920 67.500 445.428 64.750 C 443.252 60.739, 442 61.378, 442 66.500 M 64.545 64.859 C 63.708 67.497, 64.903 70, 67 70 C 67.982 70, 69.069 69.262, 69.416 68.359 C 70.376 65.857, 69.088 63, 67 63 C 65.974 63, 64.869 63.837, 64.545 64.859 M 120 64.500 C 120 65.333, 120.889 66, 122 66 C 123.111 66, 124 65.333, 124 64.500 C 124 63.667, 123.111 63, 122 63 C 120.889 63, 120 63.667, 120 64.500 M 180 66.500 C 180 69.435, 180.342 70.081, 181.750 69.810 C 182.949 69.579, 183.500 68.536, 183.500 66.500 C 183.500 64.464, 182.949 63.421, 181.750 63.190 C 180.342 62.919, 180 63.565, 180 66.500 M 200 64.500 C 200 65.325, 200.675 66, 201.500 66 C 202.325 66, 203 65.325, 203 64.500 C 203 63.675, 202.325 63, 201.500 63 C 200.675 63, 200 63.675, 200 64.500 M 344 65.083 C 344 67.520, 346.337 67.176, 346.823 64.667 C 347.015 63.680, 346.505 63, 345.573 63 C 344.646 63, 344 63.855, 344 65.083 M 356 65 C 356 66.289, 356.506 66.998, 357.250 66.750 C 357.938 66.521, 358.500 65.733, 358.500 65 C 358.500 64.267, 357.938 63.479, 357.250 63.250 C 356.506 63.002, 356 63.711, 356 65 M 430.412 64.368 C 429.406 66.989, 430.434 69.500, 432.514 69.500 C 434.052 69.500, 434.500 68.826, 434.500 66.514 C 434.500 63.242, 431.457 61.645, 430.412 64.368" stroke="none" fill="#7eade5" fill-rule="evenodd"/><path d="M 0.500 23 L 0.500 45 4.500 44.921 C 6.700 44.878, 7.938 44.615, 7.250 44.338 C 6.362 43.980, 6 40.814, 6 33.417 L 6 23 21.562 23 L 37.125 23 36.812 34.002 L 36.500 45.004 40 45.002 L 43.500 45 43.500 23 L 43.500 1 40 0.998 L 36.500 0.995 36.821 9.998 L 37.142 19 21.571 19 L 6 19 6 10.583 C 6 4.786, 6.389 2.010, 7.250 1.662 C 7.938 1.385, 6.700 1.122, 4.500 1.079 L 0.500 1 0.500 23 M 66.500 8.207 C 57.985 11.183, 53.654 17.351, 53.654 26.500 C 53.654 35.823, 58.032 41.893, 66.899 44.862 C 75.949 47.892, 87.074 44.142, 91.515 36.565 C 95.023 30.579, 94.978 22.345, 91.405 16.248 C 86.995 8.722, 75.574 5.035, 66.500 8.207 M 374.500 8.207 C 365.985 11.183, 361.654 17.351, 361.654 26.500 C 361.654 35.823, 366.032 41.893, 374.899 44.862 C 383.949 47.892, 395.074 44.142, 399.515 36.565 C 403.023 30.579, 402.978 22.345, 399.405 16.248 C 394.995 8.722, 383.574 5.035, 374.500 8.207 M 104.500 26.500 L 104.500 45 120.250 45 C 135.916 45, 136 44.988, 136.002 42.750 C 136.003 40.512, 135.929 40.502, 122.455 40.805 L 108.906 41.109 109.203 24.553 L 109.500 7.997 107 7.999 L 104.500 8 104.500 26.500 M 144.500 26.500 L 144.500 45 147.500 45 L 150.500 45 150.500 26.500 L 150.500 8 147.500 8 L 144.500 8 144.500 26.500 M 163.750 8.662 C 164.683 9.039, 165 13.569, 165 26.500 C 165 39.431, 164.683 43.961, 163.750 44.338 C 163.063 44.615, 168.142 44.878, 175.038 44.921 C 186.161 44.991, 188.073 44.746, 191.980 42.750 C 197.935 39.708, 200.496 34.671, 200.498 26 C 200.500 20.873, 199.992 18.683, 198.095 15.632 C 194.262 9.465, 189.870 8.033, 175 8.101 C 168.125 8.132, 163.063 8.385, 163.750 8.662 M 219.893 8.913 C 221.019 9.626, 219.986 12.922, 214.487 26.147 C 210.748 35.141, 207.254 43.063, 206.722 43.750 C 205.986 44.702, 206.679 44.996, 209.628 44.985 C 211.807 44.976, 212.973 44.635, 212.295 44.204 C 211.376 43.619, 211.493 42.319, 212.787 38.719 L 214.484 34 224.026 34 L 233.569 34 235.276 38.608 C 236.216 41.143, 236.736 43.618, 236.433 44.108 C 236.130 44.599, 237.539 45, 239.563 45 C 242.377 45, 243.008 44.705, 242.242 43.750 C 241.691 43.063, 238.016 35.114, 234.075 26.087 C 228.586 13.515, 227.212 9.482, 228.205 8.852 C 228.971 8.366, 227.256 8.031, 224 8.031 C 220.438 8.031, 218.991 8.341, 219.893 8.913 M 247.278 9.250 C 248.191 9.938, 252.102 14.740, 255.969 19.923 L 263 29.347 263 36.590 C 263 41.449, 262.589 43.999, 261.750 44.338 C 261.063 44.615, 262.525 44.842, 265 44.842 C 267.475 44.842, 268.938 44.615, 268.250 44.338 C 267.411 43.999, 267 41.449, 267 36.590 L 267 29.347 274.031 19.923 C 277.898 14.740, 281.809 9.938, 282.722 9.250 C 284.128 8.191, 283.669 8, 279.723 8 C 276.276 8, 275.195 8.343, 275.569 9.319 C 276.124 10.765, 266.562 24.500, 265 24.500 C 263.438 24.500, 253.876 10.765, 254.431 9.319 C 254.805 8.343, 253.724 8, 250.277 8 C 246.331 8, 245.872 8.191, 247.278 9.250 M 314.750 8.662 C 315.683 9.039, 316 13.569, 316 26.500 C 316 39.431, 315.683 43.961, 314.750 44.338 C 314.063 44.615, 315.525 44.842, 318 44.842 C 320.475 44.842, 321.938 44.615, 321.250 44.338 C 320.398 43.994, 320 41.314, 320 35.917 L 320 28 333.073 28 L 346.147 28 345.823 36.502 L 345.500 45.005 349.500 44.923 C 351.700 44.879, 352.938 44.615, 352.250 44.338 C 351.317 43.961, 351 39.431, 351 26.500 C 351 13.569, 351.317 9.039, 352.250 8.662 C 352.938 8.385, 351.700 8.121, 349.500 8.077 L 345.500 7.995 345.826 15.998 L 346.152 24 333.076 24 L 320 24 320 16.583 C 320 11.586, 320.408 9.002, 321.250 8.662 C 321.938 8.385, 320.475 8.158, 318 8.158 C 315.525 8.158, 314.063 8.385, 314.750 8.662 M 411.800 9.200 C 413.482 10.882, 413.482 42.118, 411.800 43.800 C 410.867 44.733, 411.467 45, 414.500 45 C 417.533 45, 418.133 44.733, 417.200 43.800 C 415.702 42.302, 415.480 14.655, 416.970 15.167 C 417.504 15.350, 421.095 21.976, 424.951 29.891 L 431.961 44.283 439.230 29.185 C 443.229 20.881, 446.837 14.067, 447.250 14.043 C 447.663 14.019, 448 20.713, 448 28.917 C 448 39.914, 447.672 43.966, 446.750 44.338 C 446.063 44.615, 447.277 44.878, 449.450 44.921 C 452.522 44.982, 453.133 44.733, 452.200 43.800 C 450.518 42.118, 450.518 10.882, 452.200 9.200 C 453.133 8.267, 452.251 8, 448.231 8 C 443.871 8, 443.160 8.254, 443.686 9.625 C 444.269 11.144, 433.296 35, 432.015 35 C 431.711 35, 428.628 29.308, 425.163 22.352 C 420.296 12.581, 419.162 9.513, 420.181 8.867 C 420.983 8.359, 419.362 8.025, 416.050 8.015 C 411.811 8.003, 410.867 8.267, 411.800 9.200 M 466.500 26.500 L 466.500 45 480.750 45 C 494.333 45, 495 44.906, 495 43 C 495 41.111, 494.333 41, 483 41 L 471 41 471 34.500 L 471 28 480.500 28 C 489.333 28, 490 27.860, 490 26 C 490 24.140, 489.333 24, 480.500 24 L 471 24 471 18 L 471 12 483 12 C 494.333 12, 495 11.889, 495 10 C 495 8.094, 494.333 8, 480.750 8 L 466.500 8 466.500 26.500 M 66.020 12.752 C 55.199 18.188, 55.199 34.812, 66.020 40.248 C 76.890 45.710, 90 38.193, 90 26.500 C 90 14.807, 76.890 7.290, 66.020 12.752 M 374.020 12.752 C 368.845 15.352, 366 20.228, 366 26.500 C 366 35.733, 372.490 42.013, 382 41.982 C 390.952 41.952, 398 35.132, 398 26.500 C 398 14.807, 384.890 7.290, 374.020 12.752 M 169 26.591 L 169 41.182 179.422 40.841 C 188.705 40.537, 190.115 40.245, 192.324 38.168 C 196.959 33.809, 197.980 23.010, 194.310 17.166 C 192.035 13.543, 187.023 12, 177.532 12 L 169 12 169 26.591 M 220.149 21.129 C 218.417 25.050, 217 28.650, 217 29.129 C 217 29.608, 220.337 30, 224.416 30 L 231.831 30 228.197 22 C 226.198 17.600, 224.278 14, 223.930 14 C 223.582 14, 221.881 17.208, 220.149 21.129 M 290 26 C 290 27.795, 290.667 28, 296.500 28 C 302.333 28, 303 27.795, 303 26 C 303 24.205, 302.333 24, 296.500 24 C 290.667 24, 290 24.205, 290 26" stroke="none" fill="#0a50ae" fill-rule="evenodd"/></svg>